<svg width="38" height="38" viewBox="0 0 38 38" fill="none" xmlns="http://www.w3.org/2000/svg">
<path d="M13.6665 23.6668V22.3335H14.9998V17.6668C14.9998 16.7446 15.2776 15.9279 15.8332 15.2168C16.3887 14.4946 17.1109 14.0224 17.9998 13.8002V13.3335C17.9998 13.0557 18.0943 12.8224 18.2832 12.6335C18.4832 12.4335 18.7221 12.3335 18.9998 12.3335C19.2776 12.3335 19.5109 12.4335 19.6998 12.6335C19.8998 12.8224 19.9998 13.0557 19.9998 13.3335V13.8002C20.8887 14.0224 21.6109 14.4946 22.1665 15.2168C22.7221 15.9279 22.9998 16.7446 22.9998 17.6668V22.3335H24.3332V23.6668H13.6665ZM18.9998 25.6668C18.6332 25.6668 18.3165 25.5391 18.0498 25.2835C17.7943 25.0168 17.6665 24.7002 17.6665 24.3335H20.3332C20.3332 24.7002 20.1998 25.0168 19.9332 25.2835C19.6776 25.5391 19.3665 25.6668 18.9998 25.6668ZM16.3332 22.3335H21.6665V17.6668C21.6665 16.9335 21.4054 16.3057 20.8832 15.7835C20.3609 15.2613 19.7332 15.0002 18.9998 15.0002C18.2665 15.0002 17.6387 15.2613 17.1165 15.7835C16.5943 16.3057 16.3332 16.9335 16.3332 17.6668V22.3335Z" fill="#1D1B20"/>
</svg>
