<svg width="16" height="16" viewBox="0 0 16 16" fill="none" xmlns="http://www.w3.org/2000/svg">
<g id="Component 2">
<g id="path">
<path d="M2.77234 4.76449C4.49879 2.74455 7.3482 2.10076 9.77538 3.18224C10.1117 3.3321 10.5058 3.18094 10.6557 2.84463C10.8055 2.50831 10.6544 2.11419 10.318 1.96434C7.3515 0.642526 3.86888 1.42938 1.75878 3.89819C-0.351325 6.36701 -0.586247 9.92967 1.18141 12.6542C2.94906 15.3787 6.29821 16.616 9.41263 15.6952C12.5271 14.7744 14.6649 11.9143 14.6667 8.66663V8.04663C14.6667 7.67844 14.3682 7.37996 14 7.37996C13.6319 7.37996 13.3334 7.67844 13.3334 8.04663V8.66624C13.3319 11.3235 11.5828 13.6632 9.03459 14.4166C6.48642 15.17 3.74621 14.1576 2.29995 11.9285C0.853685 9.69934 1.04589 6.78443 2.77234 4.76449Z" fill="#438E53"/>
<path d="M15.1381 3.13803C15.3985 2.87768 15.3985 2.45557 15.1381 2.19522C14.8778 1.93487 14.4557 1.93487 14.1953 2.19522L7.33337 9.05715L5.80478 7.52855C5.54443 7.2682 5.12232 7.2682 4.86197 7.52855C4.60162 7.7889 4.60162 8.21101 4.86197 8.47136L6.86197 10.4714C7.12232 10.7317 7.54443 10.7317 7.80478 10.4714L15.1381 3.13803Z" fill="#438E53"/>
</g>
</g>
</svg>
