<svg width="24" height="24" viewBox="0 0 24 24" fill="none" xmlns="http://www.w3.org/2000/svg">
<g id="eye">
<path id="Vector" d="M4.91623 3.37499C4.81326 3.27941 4.67824 3.22582 4.53775 3.22478C4.39725 3.22373 4.26145 3.27531 4.15707 3.36935C4.05268 3.46339 3.98727 3.59309 3.9737 3.73293C3.96013 3.87277 3.99938 4.01263 4.08374 4.12499L6.04124 6.28124C2.54624 8.33436 1.05092 11.625 0.986235 11.7722C0.954184 11.8442 0.937622 11.9221 0.937622 12.0009C0.937622 12.0797 0.954184 12.1577 0.986235 12.2297C1.01811 12.3019 1.79811 14.0315 3.53998 15.7734C5.15623 17.3878 7.93311 19.3125 12 19.3125C13.6999 19.3228 15.3816 18.9629 16.9284 18.2578L19.0847 20.6287C19.1851 20.7391 19.3253 20.8051 19.4744 20.8121C19.6235 20.8192 19.7693 20.7667 19.8797 20.6662C19.9901 20.5658 20.056 20.4256 20.0631 20.2765C20.0701 20.1274 20.0176 19.9816 19.9172 19.8712L4.91623 3.37499ZM9.47436 10.0612L13.6931 14.7037C13.0597 15.0995 12.3075 15.2603 11.5676 15.1581C10.8278 15.0558 10.1473 14.697 9.64502 14.1442C9.14273 13.5915 8.85048 12.8799 8.81929 12.1337C8.7881 11.3875 9.01994 10.654 9.47436 10.0612ZM12 18.1875C9.05811 18.1875 6.48936 17.1169 4.36405 15.0065C3.47291 14.1213 2.71897 13.1079 2.12717 12C2.52936 11.2312 4.01155 8.70186 6.81467 7.13342L8.70842 9.21561C8.03419 10.0146 7.67313 11.0312 7.69242 12.0765C7.71171 13.1217 8.11004 14.1244 8.8133 14.8979C9.51656 15.6715 10.4769 16.1632 11.5156 16.2816C12.5543 16.4001 13.6006 16.1372 14.46 15.5419L16.1297 17.3794C14.8207 17.921 13.4166 18.1958 12 18.1875ZM12.6 8.86874C12.4534 8.84076 12.324 8.75571 12.2401 8.63229C12.1562 8.50887 12.1248 8.35719 12.1528 8.21061C12.1808 8.06404 12.2658 7.93458 12.3892 7.85072C12.5127 7.76685 12.6643 7.73545 12.8109 7.76342C13.7269 7.94137 14.5608 8.41053 15.1884 9.101C15.8161 9.79146 16.2037 10.6663 16.2937 11.595C16.3006 11.6685 16.2929 11.7427 16.271 11.8133C16.2492 11.8839 16.2137 11.9495 16.1665 12.0063C16.1193 12.0632 16.0614 12.1102 15.996 12.1446C15.9307 12.1791 15.8592 12.2004 15.7856 12.2072H15.7331C15.5924 12.2078 15.4567 12.1556 15.3525 12.0611C15.2484 11.9665 15.1835 11.8363 15.1706 11.6962C15.1038 11.011 14.8174 10.3656 14.3543 9.85612C13.8911 9.34667 13.2758 9.00036 12.6 8.86874ZM23.0137 12.2297C22.9753 12.3159 22.0415 14.3859 19.9331 16.2722C19.8784 16.3234 19.814 16.3632 19.7437 16.3893C19.6734 16.4153 19.5986 16.427 19.5238 16.4237C19.4489 16.4204 19.3754 16.4022 19.3077 16.3701C19.2399 16.338 19.1793 16.2927 19.1293 16.2369C19.0793 16.181 19.041 16.1157 19.0166 16.0448C18.9922 15.974 18.9822 15.8989 18.9872 15.8241C18.9922 15.7493 19.0121 15.6763 19.0458 15.6093C19.0794 15.5423 19.1261 15.4827 19.1831 15.4341C20.273 14.4549 21.1832 13.2927 21.8728 12C21.2809 10.8921 20.527 9.87876 19.6359 8.99342C17.5106 6.88311 14.9419 5.81249 12 5.81249C11.3816 5.81175 10.7642 5.86192 10.154 5.96249C10.0806 5.97634 10.0051 5.9754 9.93199 5.95974C9.85889 5.94407 9.78965 5.91399 9.7283 5.87126C9.66696 5.82852 9.61476 5.77399 9.57473 5.71084C9.53471 5.64769 9.50768 5.5772 9.49522 5.50349C9.48276 5.42977 9.48512 5.35431 9.50215 5.28152C9.51919 5.20873 9.55057 5.14006 9.59445 5.07954C9.63834 5.01901 9.69385 4.96784 9.75774 4.92902C9.82162 4.89019 9.89261 4.8645 9.96655 4.85342C10.6386 4.74186 11.3187 4.68636 12 4.68749C16.0669 4.68749 18.8437 6.61311 20.46 8.22749C22.2019 9.96936 22.9819 11.6962 23.0137 11.7722C23.0458 11.8442 23.0623 11.9221 23.0623 12.0009C23.0623 12.0797 23.0458 12.1577 23.0137 12.2297Z" fill="#6C6C6C"/>
</g>
</svg>
