<svg width="58" height="59" viewBox="0 0 58 59" fill="none" xmlns="http://www.w3.org/2000/svg">
<g id="Logo container">
<rect id="Logo background shape" y="0.5" width="58" height="58" rx="10" fill="url(#paint0_linear_400_2403)"/>
<g id="Logo">
<g id="Logo background">
<path id="Vector" d="M39.5912 39.6764C41.8523 36.8278 42.963 33.4013 42.963 29.3968C42.963 26.7959 42.5266 24.2777 41.654 21.8007C41.0986 20.1906 40.3846 18.9108 39.5119 17.92C38.6392 16.9292 37.4889 16.0623 36.0608 15.4017C33.7998 14.3284 31.1817 13.7917 28.1273 13.7917C23.5259 13.7917 19.9955 14.865 17.5758 17.0531C14.7197 19.5301 13.2917 23.7823 13.2917 29.7271C13.2917 33.1123 13.8867 36.0434 15.0767 38.4791C16.6634 41.658 19.1228 43.6809 22.4945 44.4652C23.8036 44.7542 24.9143 44.9606 25.8266 45.0432C26.7786 45.1258 28.4843 45.1671 30.9834 45.1671L33.4428 45.2083H44.7084V39.6764H39.5912ZM34.5535 36.6627C33.3634 38.892 31.2611 40.0066 28.2067 40.0066C24.9539 40.0066 22.7722 38.8094 21.6219 36.3737C20.7888 34.5159 20.3525 32.1215 20.3525 29.1491C20.3525 25.7226 20.9872 23.163 22.2565 21.5117C23.5259 19.8603 25.5093 18.9934 28.1273 18.9934C30.9437 18.9934 32.9668 20.0255 34.2361 22.0896C35.3468 23.9474 35.9022 26.3005 35.9022 29.2317C35.9022 32.4931 35.4658 34.9701 34.5535 36.6627Z" fill="white"/>
</g>
</g>
</g>
<defs>
<linearGradient id="paint0_linear_400_2403" x1="3.70213" y1="4.20213" x2="46.8936" y2="58.5" gradientUnits="userSpaceOnUse">
<stop stop-color="#012D5C"/>
<stop offset="0.466667" stop-color="#70389E"/>
<stop offset="1" stop-color="#000E2D"/>
</linearGradient>
</defs>
</svg>
