<svg width="120" height="44" viewBox="0 0 120 44" fill="none" xmlns="http://www.w3.org/2000/svg">
<g id="quessbluesvg 1">
<g id="Group">
<g id="Group_2">
<path id="Vector" d="M24.2699 24.4936C25.9799 22.4696 26.8199 20.0349 26.8199 17.1896C26.8199 15.3416 26.4899 13.5522 25.8299 11.7922C25.4099 10.6482 24.8699 9.7389 24.2099 9.0349C23.5499 8.3309 22.6799 7.7149 21.5999 7.24556C19.8899 6.4829 17.9099 6.10156 15.5999 6.10156C12.1199 6.10156 9.44988 6.86423 7.61988 8.4189C5.45988 10.1789 4.37988 13.2002 4.37988 17.4242C4.37988 19.8296 4.82988 21.9122 5.72988 23.6429C6.92988 25.9016 8.78988 27.3389 11.3399 27.8962C12.3299 28.1016 13.1699 28.2482 13.8599 28.3069C14.5799 28.3656 15.8699 28.3949 17.7599 28.3949L19.6199 28.4242H28.1399V24.4936H24.2699ZM20.4599 22.3522C19.5599 23.9362 17.9699 24.7282 15.6599 24.7282C13.1999 24.7282 11.5499 23.8776 10.6799 22.1469C10.0499 20.8269 9.71988 19.1256 9.71988 17.0136C9.71988 14.5789 10.1999 12.7602 11.1599 11.5869C12.1199 10.4136 13.6199 9.79756 15.5999 9.79756C17.7299 9.79756 19.2599 10.5309 20.2199 11.9976C21.0599 13.3176 21.4799 14.9896 21.4799 17.0722C21.4799 19.3896 21.1499 21.1496 20.4599 22.3522Z" fill="#0094D9"/>
<path id="Vector_2" fill-rule="evenodd" clip-rule="evenodd" d="M35.4001 7.3042V19.8589C35.4001 20.8562 35.4901 21.6482 35.6401 22.2055C35.8201 22.7629 36.0901 23.2322 36.5101 23.6135C37.4401 24.4642 38.7001 24.9042 40.2901 24.9042C41.3101 24.9042 42.2101 24.7282 42.9901 24.4055C43.7701 24.0535 44.2801 23.6135 44.5801 23.0269C44.8801 22.4402 45.0301 21.3842 45.0301 19.8882V7.3042H49.6201V19.6535C49.6201 21.2962 49.4401 22.6162 49.1101 23.6722C48.7501 24.7282 48.2101 25.5789 47.4601 26.2242C45.7501 27.6615 43.3501 28.3949 40.2001 28.3949C36.8701 28.3949 34.4401 27.6909 32.9101 26.2535C32.1001 25.5202 31.5601 24.6989 31.2601 23.7602C30.9601 22.8509 30.8101 21.5895 30.8101 19.9469V7.3042H35.4001Z" fill="#231F20"/>
<path id="Vector_3" fill-rule="evenodd" clip-rule="evenodd" d="M69.66 7.30424V11.0296H63.66C62.1 11.0296 60.96 11.1469 60.24 11.3522C59.52 11.5576 58.95 11.9682 58.47 12.5842C58.14 12.9949 57.93 13.4349 57.81 13.8456C57.69 14.2562 57.6 14.9896 57.51 16.0162H69.66V19.7416H57.51C57.66 21.5896 58.2 22.8509 59.13 23.5549C60.06 24.2589 61.62 24.6402 63.87 24.6402H69.66V28.3656H63.66C62.04 28.3656 60.6 28.2776 59.37 28.0722C57.42 27.7789 55.89 26.9282 54.75 25.5789C53.13 23.6429 52.29 21.0029 52.29 17.6882C52.29 14.0216 53.43 11.1469 55.74 9.1229C56.52 8.4189 57.36 7.94957 58.26 7.68557C59.16 7.42157 60.36 7.2749 61.86 7.2749H69.66V7.30424Z" fill="#231F20"/>
<path id="Vector_4" fill-rule="evenodd" clip-rule="evenodd" d="M73.3501 28.4241V24.6988H83.2201C84.8101 24.6988 85.8601 24.5521 86.4001 24.2295C87.1501 23.7895 87.5401 23.1148 87.5401 22.2348C87.5401 21.2081 87.0901 20.4455 86.2201 19.9761C85.7101 19.7121 84.9001 19.5655 83.7901 19.5655H79.7701C77.3101 19.5655 75.5701 19.1255 74.4901 18.2748C73.8301 17.7175 73.2901 17.0428 72.9001 16.2215C72.5101 15.4001 72.3301 14.5201 72.3301 13.5815C72.3301 12.0855 72.7801 10.7361 73.6501 9.50413C74.5201 8.33079 75.9001 7.62679 77.8201 7.45079C78.4801 7.39213 79.4101 7.36279 80.7001 7.36279H91.4101V11.0881H81.7501C80.3101 11.0881 79.3501 11.1761 78.8701 11.2641C77.9101 11.4988 77.4001 12.2321 77.4001 13.4348C77.4001 14.4615 77.7901 15.1361 78.6301 15.4881C79.1701 15.7228 80.1001 15.8401 81.3601 15.8401H84.8101C86.5801 15.8401 87.9001 15.9868 88.8001 16.2801C90.3301 16.7788 91.3801 17.6588 91.9501 18.9201C92.4001 19.9468 92.6401 21.0321 92.6401 22.2055C92.6401 23.4961 92.3401 24.6401 91.7401 25.6375C90.9001 27.0748 89.6101 27.9255 87.9301 28.2188C87.1201 28.3361 85.8601 28.4241 84.2401 28.4241H73.3501Z" fill="#231F20"/>
<path id="Vector_5" fill-rule="evenodd" clip-rule="evenodd" d="M96.3301 28.4241V24.6988H106.2C107.79 24.6988 108.84 24.5521 109.38 24.2295C110.13 23.7895 110.52 23.1148 110.52 22.2348C110.52 21.2081 110.07 20.4455 109.2 19.9761C108.69 19.7121 107.88 19.5655 106.77 19.5655H102.75C100.29 19.5655 98.5501 19.1255 97.4701 18.2748C96.8101 17.7175 96.2701 17.0428 95.8801 16.2215C95.4901 15.4001 95.3101 14.5201 95.3101 13.5815C95.3101 12.0855 95.7601 10.7361 96.6301 9.50413C97.5001 8.33079 98.8801 7.62679 100.8 7.45079C101.46 7.39213 102.42 7.36279 103.68 7.36279H114.39V11.0881H104.73C103.29 11.0881 102.33 11.1761 101.85 11.2641C100.89 11.4988 100.38 12.2321 100.38 13.4348C100.38 14.4615 100.77 15.1361 101.61 15.4881C102.15 15.7228 103.08 15.8401 104.34 15.8401H107.79C109.56 15.8401 110.88 15.9868 111.78 16.2801C113.31 16.7788 114.36 17.6588 114.93 18.9201C115.38 19.9468 115.62 21.0321 115.62 22.2055C115.62 23.4961 115.32 24.6401 114.72 25.6375C113.88 27.0748 112.59 27.9255 110.91 28.2188C110.1 28.3361 108.84 28.4241 107.19 28.4241H96.3301Z" fill="#231F20"/>
</g>
<g id="Group_3">
<path id="Vector_6" d="M19.3199 37.8399L18.1499 33.0879H19.1399L19.8899 36.3439L20.7899 33.0879H21.9599L22.7999 36.4026L23.5499 33.0879H24.5399L23.3399 37.8399H22.3199L21.3599 34.3199L20.3699 37.8399H19.3199Z" fill="#231F20"/>
<path id="Vector_7" d="M25.9199 37.8399V33.0879H26.9099V37.8399H25.9199Z" fill="#231F20"/>
<path id="Vector_8" d="M28.7998 37.8399V33.0879H29.7598L31.7398 36.2559V33.0879H32.6398V37.8399H31.6498L29.6998 34.7599V37.8399H28.7998Z" fill="#231F20"/>
<path id="Vector_9" d="M34.6201 37.8399V33.0879H35.5801L37.5601 36.2559V33.0879H38.4601V37.8399H37.5001L35.5501 34.7306V37.8399H34.6201Z" fill="#231F20"/>
<path id="Vector_10" d="M40.4097 37.8399V33.0879H41.3997V37.8399H40.4097Z" fill="#231F20"/>
<path id="Vector_11" d="M43.29 37.8399V33.0879H44.25L46.23 36.2559V33.0879H47.13V37.8399H46.14L44.19 34.7306V37.8399H43.29Z" fill="#231F20"/>
<path id="Vector_12" d="M51.3597 36.1093V35.3173H53.4597V37.1947C52.9197 37.6933 52.2297 37.928 51.3897 37.928C50.5797 37.928 49.9797 37.6933 49.5597 37.224C49.1397 36.7547 48.9297 36.168 48.9297 35.4347C48.9297 34.6133 49.1697 34.0267 49.6197 33.616C50.0997 33.2053 50.6697 33 51.3297 33C52.4997 33 53.1897 33.4693 53.3997 34.408L52.4397 34.584C52.2897 34.0853 51.9297 33.8213 51.3597 33.8213C50.4297 33.8213 49.9497 34.3493 49.9497 35.4053C49.9497 35.9333 50.0697 36.344 50.3097 36.6373C50.5497 36.9307 50.8797 37.0773 51.3297 37.0773C51.7497 37.0773 52.1097 36.9307 52.4697 36.6667V36.0507H51.3597V36.1093Z" fill="#231F20"/>
<path id="Vector_13" d="M59.2198 37.8399V33.9092H57.7798V33.1172H61.6498V33.9092H60.2098V37.8399H59.2198Z" fill="#231F20"/>
<path id="Vector_14" d="M63 35.4933C63 34.7307 63.21 34.1147 63.63 33.6747C64.05 33.2347 64.62 33 65.37 33C66.21 33 66.81 33.2347 67.17 33.7333C67.53 34.232 67.71 34.7893 67.71 35.464C67.71 36.2267 67.5 36.8133 67.08 37.2533C66.66 37.6933 66.09 37.8987 65.37 37.8987C64.62 37.8987 64.05 37.6933 63.63 37.2533C63.21 36.8427 63 36.256 63 35.4933ZM64.02 35.464C64.02 35.9627 64.14 36.344 64.38 36.6373C64.62 36.9307 64.95 37.0773 65.37 37.0773C65.82 37.0773 66.15 36.9307 66.36 36.608C66.57 36.2853 66.69 35.904 66.69 35.4347C66.69 34.3493 66.24 33.8213 65.37 33.8213C64.47 33.8507 64.02 34.3787 64.02 35.464Z" fill="#231F20"/>
<path id="Vector_15" d="M71.7 36.1093V35.3173H73.8V37.1947C73.26 37.6933 72.57 37.928 71.73 37.928C70.92 37.928 70.32 37.6933 69.9 37.224C69.48 36.7547 69.27 36.168 69.27 35.4347C69.27 34.6133 69.51 34.0267 69.96 33.616C70.44 33.2053 71.01 33 71.67 33C72.84 33 73.53 33.4693 73.74 34.408L72.78 34.584C72.63 34.0853 72.27 33.8213 71.7 33.8213C70.77 33.8213 70.29 34.3493 70.29 35.4053C70.29 35.9333 70.41 36.344 70.65 36.6373C70.89 36.9307 71.22 37.0773 71.67 37.0773C72.09 37.0773 72.45 36.9307 72.81 36.6667V36.0507H71.7V36.1093Z" fill="#231F20"/>
<path id="Vector_16" d="M75.6299 37.8399V33.0879H79.2299V33.8799H76.6199V34.9359H79.0499V35.7279H76.6199V37.0186H79.3499V37.8106H75.6299V37.8399Z" fill="#231F20"/>
<path id="Vector_17" d="M82.1998 37.8399V33.9092H80.7598V33.1172H84.5998V33.9092H83.1598V37.8399H82.1998Z" fill="#231F20"/>
<path id="Vector_18" d="M86.1899 37.8399V33.0879H87.1799V34.9652H89.0999V33.0879H90.0899V37.8399H89.0999V35.7866H87.1799V37.8692H86.1899V37.8399Z" fill="#231F20"/>
<path id="Vector_19" d="M92.0098 37.8399V33.0879H95.6098V33.8799H92.9998V34.9359H95.4298V35.7279H92.9998V37.0186H95.7298V37.8106H92.0098V37.8399Z" fill="#231F20"/>
<path id="Vector_20" d="M97.4697 37.8399V33.0879H99.5397C100.17 33.0879 100.65 33.1759 100.98 33.3812C101.31 33.5572 101.46 33.9092 101.46 34.4372C101.46 35.1999 101.04 35.6399 100.17 35.7572C100.5 35.9332 100.86 36.3146 101.25 36.9306L101.85 37.8692H100.68L99.6297 36.3439C99.5397 36.1972 99.4197 36.0799 99.2697 36.0212C99.1497 35.9626 98.9397 35.9039 98.6697 35.9039H98.4597V37.8986H97.4697V37.8399ZM98.4597 35.1119H99.1797C99.6597 35.1119 100.02 35.0826 100.17 34.9946C100.35 34.9066 100.44 34.7599 100.44 34.4959C100.44 34.2612 100.38 34.1146 100.23 34.0266C100.08 33.9386 99.7497 33.9092 99.2397 33.9092H98.4897V35.1119H98.4597Z" fill="#231F20"/>
</g>
</g>
</g>
</svg>
